<svg xmlns="http://www.w3.org/2000/svg" width="104.379" height="51.048" viewBox="0 0 104.379 51.048"><g transform="translate(0)"><path data-name="Tracé 11806" d="M3169.762-268.43l-8.9-19.542a4.334,4.334,0,0,0-3.509-3.132l-.036-.029h-11.969a4.253,4.253,0,0,0-3.816,3.161l-12.366,27.511L3116.8-287.972a4.255,4.255,0,0,0-3.817-3.161l-12.215-.026c-1.193,0-1.941,1.626-1.349,2.934l20.368,44.952a4.255,4.255,0,0,0,3.817,3.161h11.12a4.255,4.255,0,0,0,3.817-3.161l12.649-27.9,9.938,21.911Z" transform="translate(-3099.215 291.159)" fill="#282828"/><path data-name="Tracé 11807" d="M3235.745-242.84c-.553,1.229.15,2.755,1.269,2.755l12.228,0a4.256,4.256,0,0,0,3.817-3.161l20.463-45.1c.557-1.229-.145-2.76-1.266-2.76h-12.394a4.254,4.254,0,0,0-3.816,3.161Z" transform="translate(-3169.338 291.133)" fill="#e5aa00"/><g data-name="Groupe 2578" transform="translate(21.414 0.025)"><path data-name="Tracé 11808" d="M3179.992-291.107h-11.969a4.255,4.255,0,0,0-3.817,3.161l-12.364,27.512-.014-.031-8.521,18.78a3.8,3.8,0,0,0,2.975,1.6H3157.4a4.255,4.255,0,0,0,3.817-3.161l21.108-46.679a3.737,3.737,0,0,0-2.3-1.153Z" transform="translate(-3143.307 291.107)" fill="#161615"/></g></g></svg>